# xmcd
#
# Track frame offsets:
#	150
#	21977
#	43081
#	61696
#	88283
#	109424
#	135747
#	167161
#	189581
#	221193
#
# Disc length: 3245 seconds
#
# Revision: 1
# Processed by: cddbd v1.5.2PL0 Copyright (c) Steve Scherf et al.
# Submitted via: audiograbber 1.83.01
#
DISCID=960cab0a
DTITLE=Joy Fleming - L'Attraction
DYEAR=2007
DGENRE=Blues
TTITLE0=Dreaming
TTITLE1=On (247)
TTITLE2=I Want It Back
TTITLE3=Sweet Reality
TTITLE4=I'm In Love
TTITLE5=Real Beat
TTITLE6=All The Way
TTITLE7=This Time
TTITLE8=Cool Water
TTITLE9=Jazz
EXTD=
EXTT0=
EXTT1=
EXTT2=
EXTT3=
EXTT4=
EXTT5=
EXTT6=
EXTT7=
EXTT8=
EXTT9=
PLAYORDER=
